<svg xmlns="http://www.w3.org/2000/svg" viewBox="0 0 560 480">
  <defs>
    <linearGradient id="bg2" x1="0" y1="0" x2="1" y2="1">
      <stop offset="0%" stop-color="#1E293B"/>
      <stop offset="100%" stop-color="#2563EB"/>
    </linearGradient>
  </defs>
  <rect width="560" height="480" rx="24" fill="url(#bg2)"/>
  <g transform="translate(80,120)" opacity="0.95">
    <rect x="0" y="0" width="400" height="240" rx="12" fill="#0F172A"/>
    <rect x="16" y="16" width="368" height="208" rx="6" fill="#F8FAFC"/>
    <circle cx="30" cy="-16" r="6" fill="#EF4444"/>
    <circle cx="50" cy="-16" r="6" fill="#F59E0B"/>
    <circle cx="70" cy="-16" r="6" fill="#22C55E"/>
    <rect x="34" y="40" width="140" height="10" rx="3" fill="#2563EB"/>
    <rect x="34" y="60" width="220" height="8" rx="3" fill="#94A3B8"/>
    <rect x="34" y="76" width="180" height="8" rx="3" fill="#CBD5E1"/>
    <rect x="34" y="100" width="200" height="8" rx="3" fill="#94A3B8"/>
    <rect x="34" y="116" width="120" height="8" rx="3" fill="#2563EB"/>
    <rect x="34" y="140" width="240" height="8" rx="3" fill="#CBD5E1"/>
  </g>
  <text x="280" y="440" text-anchor="middle" font-family="Arial, sans-serif" font-size="15" fill="#E2E8F0" letter-spacing="2">REPLACE WITH YOUR PHOTO</text>
</svg>
