<svg xmlns="http://www.w3.org/2000/svg" viewBox="0 0 600 400">
  <defs>
    <linearGradient id="g5" x1="0" y1="0" x2="1" y2="1">
      <stop offset="0%" stop-color="#0F172A"/>
      <stop offset="100%" stop-color="#2563EB"/>
    </linearGradient>
  </defs>
  <rect width="600" height="400" fill="url(#g5)"/>
  <g opacity="0.12" fill="#FFFFFF">
    <circle cx="520" cy="60" r="120"/>
    <circle cx="40" cy="360" r="90"/>
  </g>
  <g transform="translate(90,110)">
    <rect x="0" y="0" width="420" height="180" rx="10" fill="#0F172A" opacity="0.85"/>
    <circle cx="20" cy="-14" r="5" fill="#EF4444"/>
    <circle cx="36" cy="-14" r="5" fill="#F59E0B"/>
    <circle cx="52" cy="-14" r="5" fill="#22C55E"/>
    <rect x="20" y="24" width="140" height="8" rx="3" fill="#38BDF8"/>
    <rect x="20" y="42" width="200" height="6" rx="3" fill="#94A3B8"/>
    <rect x="20" y="56" width="160" height="6" rx="3" fill="#94A3B8"/>
    <rect x="20" y="78" width="100" height="6" rx="3" fill="#38BDF8"/>
    <rect x="20" y="92" width="220" height="6" rx="3" fill="#94A3B8"/>
    <rect x="20" y="106" width="180" height="6" rx="3" fill="#94A3B8"/>
  </g>
  <text x="300" y="350" text-anchor="middle" font-family="Arial, sans-serif" font-weight="bold" font-size="22" fill="#FFFFFF">FitTrack</text>
</svg>
